<?xml version="1.0" encoding="UTF-8" standalone="no"?>
<!DOCTYPE svg PUBLIC "-//W3C//DTD SVG 1.1//EN" "http://www.w3.org/Graphics/SVG/1.1/DTD/svg11.dtd">
<svg width="100%" height="100%" viewBox="0 0 166 662" version="1.1" xmlns="http://www.w3.org/2000/svg" xmlns:xlink="http://www.w3.org/1999/xlink" xml:space="preserve" xmlns:serif="http://www.serif.com/" style="fill-rule:evenodd;clip-rule:evenodd;stroke-linejoin:round;stroke-miterlimit:2;">
    <g transform="matrix(1,0,0,1,-885.827,-1653.54)">
        <g transform="matrix(0.979591,0,0,0.979591,23.0173,18.0766)">
            <g transform="matrix(0,-4.16667,-4.16667,0,965.182,1673.89)">
                <path d="M-19.212,-20.213C-8.057,-20.213 1,-11.156 1,-0.001C1,11.155 -8.057,20.212 -19.212,20.212C-30.368,20.212 -39.425,11.155 -39.425,-0.001C-39.425,-11.156 -30.368,-20.213 -19.212,-20.213ZM-19.212,-18.213C-29.264,-18.213 -37.425,-10.052 -37.425,-0.001C-37.425,10.051 -29.264,18.212 -19.212,18.212C-9.161,18.212 -1,10.051 -1,-0.001C-1,-10.052 -9.161,-18.213 -19.212,-18.213Z" style="fill:rgb(128,128,128);"/>
            </g>
            <g transform="matrix(4.16667,0,0,4.16667,983.673,1750.42)">
                <path d="M0,1.687L0.441,-1.731L-2.947,-1.731L-2.947,-3.913C-2.947,-4.902 -2.672,-5.576 -1.251,-5.576L0.56,-5.577L0.56,-8.634C0.247,-8.675 -0.828,-8.769 -2.08,-8.769C-4.692,-8.769 -6.48,-7.176 -6.48,-4.251L-6.48,-1.731L-9.435,-1.731L-9.435,1.687L-6.48,1.687L-6.48,10.456L-2.947,10.456L-2.947,1.687L0,1.687Z" style="fill:rgb(128,128,128);fill-rule:nonzero;"/>
            </g>
        </g>
        <g transform="matrix(0.979591,0,0,0.979591,-515.703,348.789)">
            <g transform="matrix(0,-4.16667,-4.16667,0,1515.13,1673.88)">
                <path d="M-19.212,-20.212C-8.057,-20.212 1,-11.155 1,0C1,11.156 -8.057,20.213 -19.212,20.213C-30.368,20.213 -39.425,11.156 -39.425,0C-39.425,-11.155 -30.368,-20.212 -19.212,-20.212ZM-19.212,-18.212C-29.264,-18.212 -37.425,-10.051 -37.425,0C-37.425,10.052 -29.264,18.213 -19.212,18.213C-9.161,18.213 -1,10.052 -1,0C-1,-10.051 -9.161,-18.212 -19.212,-18.212Z" style="fill:rgb(128,128,128);"/>
            </g>
            <path d="M1515.13,1712.1C1503.77,1712.1 1502.34,1712.15 1497.88,1712.35C1493.43,1712.56 1490.39,1713.27 1487.73,1714.3C1484.98,1715.37 1482.64,1716.8 1480.32,1719.12C1477.99,1721.45 1476.56,1723.78 1475.49,1726.53C1474.46,1729.19 1473.75,1732.24 1473.55,1736.69C1473.34,1741.15 1473.3,1742.57 1473.3,1753.94C1473.3,1765.3 1473.34,1766.72 1473.55,1771.19C1473.75,1775.64 1474.46,1778.68 1475.49,1781.34C1476.56,1784.09 1477.99,1786.42 1480.32,1788.75C1482.64,1791.07 1484.98,1792.51 1487.73,1793.57C1490.39,1794.61 1493.43,1795.32 1497.88,1795.52C1502.34,1795.72 1503.77,1795.77 1515.13,1795.77C1526.49,1795.77 1527.92,1795.72 1532.38,1795.52C1536.83,1795.32 1539.87,1794.61 1542.53,1793.57C1545.28,1792.51 1547.62,1791.07 1549.94,1788.75C1552.27,1786.42 1553.7,1784.09 1554.77,1781.34C1555.8,1778.68 1556.51,1775.64 1556.71,1771.19C1556.92,1766.72 1556.96,1765.3 1556.96,1753.94C1556.96,1742.57 1556.92,1741.15 1556.71,1736.69C1556.51,1732.24 1555.8,1729.19 1554.77,1726.53C1553.7,1723.78 1552.27,1721.45 1549.94,1719.12C1547.62,1716.8 1545.28,1715.37 1542.53,1714.3C1539.87,1713.27 1536.83,1712.56 1532.38,1712.35C1527.92,1712.15 1526.49,1712.1 1515.13,1712.1ZM1515.13,1719.64C1526.3,1719.64 1527.62,1719.68 1532.03,1719.89C1536.11,1720.07 1538.33,1720.75 1539.8,1721.32C1541.75,1722.08 1543.15,1722.99 1544.61,1724.45C1546.08,1725.92 1546.98,1727.31 1547.74,1729.27C1548.31,1730.74 1549,1732.95 1549.18,1737.03C1549.38,1741.44 1549.42,1742.77 1549.42,1753.94C1549.42,1765.11 1549.38,1766.43 1549.18,1770.84C1549,1774.92 1548.31,1777.14 1547.74,1778.61C1546.98,1780.56 1546.08,1781.96 1544.61,1783.42C1543.15,1784.88 1541.75,1785.79 1539.8,1786.55C1538.33,1787.12 1536.11,1787.8 1532.03,1787.99C1527.62,1788.19 1526.3,1788.23 1515.13,1788.23C1503.96,1788.23 1502.63,1788.19 1498.23,1787.99C1494.15,1787.8 1491.93,1787.12 1490.46,1786.55C1488.5,1785.79 1487.11,1784.88 1485.65,1783.42C1484.18,1781.96 1483.28,1780.56 1482.52,1778.61C1481.95,1777.14 1481.26,1774.92 1481.08,1770.84C1480.88,1766.43 1480.83,1765.11 1480.83,1753.94C1480.83,1742.77 1480.88,1741.44 1481.08,1737.03C1481.26,1732.95 1481.95,1730.74 1482.52,1729.27C1483.28,1727.31 1484.18,1725.92 1485.65,1724.45C1487.11,1722.99 1488.5,1722.08 1490.46,1721.32C1491.93,1720.75 1494.15,1720.07 1498.23,1719.89C1502.64,1719.68 1503.96,1719.64 1515.13,1719.64ZM1515.13,1732.46C1503.27,1732.46 1493.65,1742.07 1493.65,1753.94C1493.65,1765.8 1503.27,1775.42 1515.13,1775.42C1526.99,1775.42 1536.61,1765.8 1536.61,1753.94C1536.61,1742.07 1526.99,1732.46 1515.13,1732.46ZM1515.13,1767.88C1507.43,1767.88 1501.18,1761.64 1501.18,1753.94C1501.18,1746.24 1507.43,1739.99 1515.13,1739.99C1522.83,1739.99 1529.08,1746.24 1529.08,1753.94C1529.08,1761.64 1522.83,1767.88 1515.13,1767.88ZM1542.48,1731.61C1542.48,1734.38 1540.24,1736.63 1537.46,1736.63C1534.69,1736.63 1532.44,1734.38 1532.44,1731.61C1532.44,1728.84 1534.69,1726.59 1537.46,1726.59C1540.24,1726.59 1542.48,1728.84 1542.48,1731.61Z" style="fill:rgb(128,128,128);fill-rule:nonzero;"/>
        </g>
        <g transform="matrix(0.979591,0,0,0.979591,-744.755,514.143)">
            <g transform="matrix(0,-4.16667,-4.16667,0,1748.96,1673.88)">
                <path d="M-19.212,-20.212C-8.057,-20.212 1,-11.155 1,0C1,11.156 -8.057,20.213 -19.212,20.213C-30.368,20.213 -39.425,11.156 -39.425,0C-39.425,-11.155 -30.368,-20.212 -19.212,-20.212ZM-19.212,-18.212C-29.264,-18.212 -37.425,-10.051 -37.425,0C-37.425,10.052 -29.264,18.213 -19.212,18.213C-9.161,18.213 -1,10.052 -1,0C-1,-10.051 -9.161,-18.212 -19.212,-18.212Z" style="fill:rgb(128,128,128);"/>
            </g>
            <g transform="matrix(0.200789,0,0,0.200789,1698.13,1717.56)">
                <path d="M495.608,59.333C489.788,37.554 472.637,20.404 450.858,14.579C411.379,4.004 253.092,4.004 253.092,4.004C253.092,4.004 94.8,4.004 55.329,14.579C33.55,20.404 16.396,37.554 10.575,59.333C0,98.808 0,181.171 0,181.171C0,181.171 0,263.529 10.575,303.008C16.396,324.783 33.55,341.933 55.329,347.758C94.8,358.333 253.092,358.333 253.092,358.333C253.092,358.333 411.379,358.333 450.858,347.758C472.637,341.933 489.788,324.783 495.608,303.008C506.188,263.529 506.188,181.171 506.188,181.171C506.188,181.171 506.188,98.808 495.608,59.333ZM202.475,257.096L202.475,105.242L333.979,181.171L202.475,257.096Z" style="fill:rgb(128,128,128);fill-rule:nonzero;"/>
            </g>
        </g>
        <g transform="matrix(0.979591,0,0,0.979591,-245.85,183.435)">
            <g>
                <g transform="matrix(0,-4.16667,-4.16667,0,1239.66,1673.88)">
                    <path d="M-19.212,-20.212C-8.057,-20.212 1,-11.155 1,0C1,11.156 -8.057,20.213 -19.212,20.213C-30.368,20.213 -39.425,11.156 -39.425,0C-39.425,-11.155 -30.368,-20.212 -19.212,-20.212ZM-19.212,-18.212C-29.264,-18.212 -37.425,-10.051 -37.425,0C-37.425,10.052 -29.264,18.213 -19.212,18.213C-9.161,18.213 -1,10.052 -1,0C-1,-10.051 -9.161,-18.212 -19.212,-18.212Z" style="fill:rgb(128,128,128);"/>
                </g>
                <g transform="matrix(4.16667,0,0,4.16667,1286.89,1783.19)">
                    <path d="M0,-12.235C-0.726,-11.914 -1.505,-11.696 -2.324,-11.598C-1.489,-12.099 -0.847,-12.893 -0.545,-13.838C-1.327,-13.374 -2.193,-13.036 -3.115,-12.856C-3.853,-13.641 -4.904,-14.133 -6.068,-14.133C-8.303,-14.133 -10.116,-12.321 -10.116,-10.086C-10.116,-9.769 -10.079,-9.461 -10.011,-9.164C-13.376,-9.333 -16.357,-10.944 -18.353,-13.393C-18.701,-12.794 -18.901,-12.1 -18.901,-11.358C-18.901,-9.954 -18.186,-8.715 -17.1,-7.99C-17.764,-8.011 -18.388,-8.193 -18.934,-8.495L-18.934,-8.446C-18.934,-6.484 -17.539,-4.848 -15.687,-4.476C-16.027,-4.384 -16.384,-4.335 -16.753,-4.335C-17.015,-4.335 -17.268,-4.359 -17.515,-4.407C-17,-2.799 -15.506,-1.629 -13.735,-1.597C-15.12,-0.511 -16.866,0.136 -18.761,0.136C-19.087,0.136 -19.409,0.117 -19.726,0.08C-17.935,1.229 -15.808,1.898 -13.523,1.898C-6.078,1.898 -2.008,-4.269 -2.008,-9.617C-2.008,-9.792 -2.012,-9.967 -2.02,-10.141C-1.229,-10.712 -0.542,-11.424 0,-12.235" style="fill:rgb(128,128,128);fill-rule:nonzero;"/>
                </g>
            </g>
        </g>
    </g>
</svg>
